<?xml version="1.0" encoding="utf-8"?>
<!-- Generator: Adobe Illustrator 22.0.1, SVG Export Plug-In . SVG Version: 6.00 Build 0)  -->
<svg version="1.1" id="Шар_1" xmlns="http://www.w3.org/2000/svg" xmlns:xlink="http://www.w3.org/1999/xlink" x="0px" y="0px"
	 viewBox="0 0 31.3 32" style="enable-background:new 0 0 31.3 32;" xml:space="preserve">
<style type="text/css">
	.st0{fill:#1B2D59;}
	.st1{fill:#00505B;}
	.st2{fill:#FFCE71;}
</style>
<path class="st0" d="M10.4,16.9c0,0.3,0.1,0.6,0.1,0.8C10.5,17.5,10.5,17.2,10.4,16.9z"/>
<path class="st0" d="M0,14.9c0-0.4,0.1-0.7,0.1-1.1C0.1,14.1,0.1,14.5,0,14.9z"/>
<polygon class="st0" points="2.8,25.3 2.8,25.3 2.8,25.2 "/>
<polygon class="st0" points="4.4,27.1 4.4,27.1 4.4,27.1 "/>
<path class="st0" d="M0.2,13.4c0-0.3,0.1-0.5,0.1-0.8C0.3,12.9,0.2,13.2,0.2,13.4z"/>
<path class="st0" d="M12,10.9C12,10.9,12,10.9,12,10.9C12,10.9,12,10.9,12,10.9z"/>
<path class="st0" d="M10.4,16c0,0.3,0,0.6,0,0.9C10.4,16.6,10.4,16.3,10.4,16z"/>
<path class="st0" d="M0.4,12.2c0-0.2,0.1-0.4,0.1-0.6C0.5,11.8,0.5,12,0.4,12.2z"/>
<path class="st0" d="M0.7,11.1c0-0.2,0.1-0.3,0.1-0.5C0.8,10.7,0.8,10.9,0.7,11.1z"/>
<path class="st0" d="M5.3,28C5.3,27.9,5.3,27.9,5.3,28C5.3,27.9,5.3,27.9,5.3,28z"/>
<path class="st0" d="M0.3,12.7c0-0.1,0.1-0.3,0.1-0.4C0.4,12.4,0.3,12.5,0.3,12.7z"/>
<path class="st0" d="M0.1,13.7c0-0.1,0-0.2,0-0.3C0.2,13.5,0.2,13.6,0.1,13.7z"/>
<path class="st0" d="M6.1,28.6c-0.3-0.2-0.5-0.4-0.8-0.6C5.6,28.2,5.9,28.4,6.1,28.6z"/>
<path class="st0" d="M0.6,11.6c0-0.2,0.1-0.4,0.2-0.6C0.7,11.2,0.6,11.4,0.6,11.6z"/>
<path class="st0" d="M5.3,27.9c-0.3-0.2-0.6-0.5-0.8-0.8C4.7,27.4,5,27.6,5.3,27.9z"/>
<path class="st0" d="M2.8,25.2c-0.2-0.3-0.4-0.6-0.6-0.9C2.4,24.6,2.6,24.9,2.8,25.2z"/>
<polygon class="st0" points="10.6,17.8 10.6,17.8 10.6,17.8 "/>
<path class="st0" d="M11.9,10.9C11.9,10.9,11.9,11,11.9,10.9C11.9,11,11.9,10.9,11.9,10.9z"/>
<path class="st0" d="M0.9,10.6C0.9,10.4,1,10.3,1,10.1C1,10.3,0.9,10.4,0.9,10.6z"/>
<path class="st0" d="M10.4,16.9C10.4,16.9,10.4,16.9,10.4,16.9C10.4,16.9,10.4,16.9,10.4,16.9z"/>
<path class="st0" d="M10.4,16C10.4,16,10.4,16,10.4,16c0-0.8,0.1-1.5,0.2-2.1C10.5,14.6,10.4,15.3,10.4,16C10.4,16,10.4,16,10.4,16z
	"/>
<path class="st1" d="M23.1,21.3l-7.7-7.9L11.9,18l-1.3-0.3l-0.1,0.1l0,0l0,0c0-0.3-0.1-0.5-0.1-0.8c0,0,0,0,0,0c0-0.3,0-0.6,0-0.9
	c0,0,0,0,0,0c0-0.7,0.1-1.4,0.2-2.1c0.2-1.1,0.7-2.1,1.3-3c0,0,0,0,0,0c0,0,0,0,0.1-0.1c0.1-0.2,0.3-0.3,0.4-0.5
	c1.3-1.4,3.1-2.1,5.4-2.1c0.8,0,1.6,0.1,2.4,0.3c1.7,0.5,3.2,1.5,4.5,3l1.2-1l5.4-4.8c-1.6-1.9-3.5-3.4-5.9-4.4
	c-1.9-0.8-4-1.3-6.3-1.4C18.5,0,17.9,0,17.3,0c-0.4,0-0.7,0-1.1,0C14,0.1,12,0.5,10.1,1.3C9.5,1.5,8.9,1.7,8.4,2
	C6.9,2.8,5.7,3.7,4.6,4.7c-0.9,0.9-1.7,1.9-2.4,3C2,8,1.9,8.3,1.7,8.6C1.6,8.8,1.6,8.9,1.5,9C1.4,9.2,1.3,9.4,1.2,9.6
	C1.2,9.8,1.1,9.9,1,10.1c-0.1,0.2-0.1,0.3-0.2,0.5c-0.1,0.2-0.1,0.3-0.1,0.5c-0.1,0.2-0.1,0.4-0.2,0.6c-0.1,0.2-0.1,0.4-0.1,0.6
	c0,0.1-0.1,0.3-0.1,0.4c0,0.3-0.1,0.5-0.1,0.8c0,0.1,0,0.2,0,0.3c0,0.4-0.1,0.7-0.1,1.1c0,0.4,0,0.8,0,1.1c0,0.5,0,1,0.1,1.4
	c0.2,2.5,0.9,4.8,2.1,6.9c0,0,0,0,0,0c0.2,0.3,0.4,0.6,0.6,0.9l0,0l3.5-4h1.9l2.4-2.7l0.1-0.1l1.3,0.3l3.1-4l1.4,5.9l1.1-1.8
	l1.5,0.9l1.5,3.1l0.1-1.2l1.3,0.5l0.6,0.7l0.9-0.8l0.8-1.5l5.2-4.5l-1.5,8l1.5,1.8h-3.1l-2.6-1.4l2.6,3.3l-4.9,0.9l-3.5-1.2
	l-2.6-1.8l-3.7,1.6l-2.2,0l1.2-1.7l-0.8-0.8L10,24.5l2-3.3l0,0l0.1-0.2L12,21l0,0l-4.2,2.7l-2.1,2.7l-1.3,0.7c0,0,0,0,0,0
	c0.3,0.3,0.5,0.5,0.8,0.8c0,0,0,0,0.1,0.1c0.3,0.2,0.5,0.4,0.8,0.6c0.1,0,0.1,0.1,0.2,0.1c0.2,0.2,0.5,0.4,0.8,0.5
	c0.1,0,0.1,0.1,0.2,0.1c0.3,0.2,0.6,0.4,0.9,0.5c0,0,0.1,0,0.1,0.1c2.6,1.4,5.5,2,8.8,2c2.3,0,4.6-0.3,7-1c2.4-0.7,4.5-1.6,6.3-2.9
	V14.6l-6.5,5.3L23.1,21.3z"/>
<path class="st2" d="M29.7,16l-5.2,4.5L23.6,22l-0.9,0.8l-0.6-0.7l-1.3-0.5l-0.1,1.2l-1.5-3.1l-1.5-0.9l-1.1,1.8l-1.4-5.9l-3.1,4
	l-1.3-0.3l-0.1,0.1l-2.4,2.7H6.3l-3.5,4.1c0.5,0.7,1,1.3,1.6,1.9l1.3-0.7l2.1-2.7L12,21l0.2-0.1L12,21.1l-2,3.3l0.1,0.1l0.8,0.8
	l-1.2,1.7l2.2,0l3.7-1.6l2.6,1.8l3.5,1.2l4.9-0.9l-2.6-3.3l2.6,1.4h3.1L28.2,24L29.7,16z"/>
</svg>
