<?xml version="1.0" encoding="utf-8"?>
<!-- Generator: Adobe Illustrator 22.0.1, SVG Export Plug-In . SVG Version: 6.00 Build 0)  -->
<svg version="1.1" id="Шар_1" xmlns="http://www.w3.org/2000/svg" xmlns:xlink="http://www.w3.org/1999/xlink" x="0px" y="0px"
	 viewBox="0 0 47 48" style="enable-background:new 0 0 47 48;" xml:space="preserve">
<style type="text/css">
	.st0{fill:#1B2D59;}
	.st1{fill:#00505B;}
	.st2{fill:#FFCE71;}
</style>
<g>
	<path class="st0" d="M15.7,25.4c0,0.4,0.1,0.8,0.2,1.2C15.8,26.2,15.7,25.8,15.7,25.4z"/>
	<path class="st0" d="M0.1,22.3c0-0.6,0.1-1.1,0.2-1.7C0.1,21.2,0.1,21.7,0.1,22.3z"/>
	<polygon class="st0" points="4.3,37.9 4.3,37.9 4.3,37.9 	"/>
	<path class="st0" d="M6.6,40.7C6.6,40.7,6.6,40.7,6.6,40.7C6.6,40.7,6.6,40.7,6.6,40.7L6.6,40.7z"/>
	<path class="st0" d="M0.3,20.2c0.1-0.4,0.1-0.8,0.2-1.2C0.4,19.4,0.3,19.8,0.3,20.2z"/>
	<path class="st0" d="M18,16.3c0,0-0.1,0.1-0.1,0.1C17.9,16.4,18,16.3,18,16.3z"/>
	<path class="st0" d="M15.6,24c0,0.5,0,0.9,0.1,1.3C15.6,24.9,15.6,24.5,15.6,24z"/>
	<path class="st0" d="M17.9,16.4c-1,1.2-1.6,2.7-2,4.4C16.3,19.2,16.9,17.7,17.9,16.4z"/>
	<path class="st0" d="M0.6,18.4c0.1-0.3,0.1-0.6,0.2-0.9C0.7,17.7,0.7,18,0.6,18.4z"/>
	<path class="st0" d="M1.1,16.6c0.1-0.2,0.1-0.5,0.2-0.7C1.2,16.1,1.2,16.4,1.1,16.6z"/>
	<path class="st0" d="M8,41.9c0,0-0.1-0.1-0.1-0.1C7.9,41.9,8,41.9,8,41.9z"/>
	<path class="st0" d="M0.5,19c0-0.2,0.1-0.4,0.1-0.6C0.6,18.6,0.5,18.8,0.5,19z"/>
	<path class="st0" d="M0.2,20.6c0-0.2,0.1-0.3,0.1-0.5C0.3,20.3,0.2,20.5,0.2,20.6z"/>
	<path class="st0" d="M9.2,42.9c-0.4-0.3-0.8-0.6-1.2-1C8.4,42.3,8.8,42.6,9.2,42.9z"/>
	<path class="st0" d="M0.8,17.4c0.1-0.3,0.2-0.6,0.3-0.8C1,16.9,0.9,17.1,0.8,17.4z"/>
	<path class="st0" d="M7.9,41.8c-0.4-0.4-0.8-0.8-1.2-1.1C7,41.1,7.5,41.5,7.9,41.8z"/>
	<path class="st0" d="M4.3,37.9c-0.3-0.4-0.6-0.9-0.9-1.4C3.6,37,3.9,37.4,4.3,37.9z"/>
	<polygon class="st0" points="15.8,26.7 15.8,26.7 15.8,26.6 	"/>
	<path class="st0" d="M17.9,16.4C17.9,16.4,17.9,16.4,17.9,16.4C17.9,16.4,17.9,16.4,17.9,16.4z"/>
	<path class="st0" d="M1.3,15.9c0.1-0.2,0.2-0.5,0.3-0.7C1.5,15.4,1.4,15.6,1.3,15.9z"/>
	<path class="st0" d="M15.7,25.4C15.7,25.4,15.7,25.4,15.7,25.4C15.7,25.4,15.7,25.4,15.7,25.4z"/>
	<path class="st0" d="M15.6,24C15.6,24,15.6,24,15.6,24c0-1.1,0.1-2.2,0.3-3.1C15.7,21.8,15.6,22.9,15.6,24C15.6,24,15.6,24,15.6,24
		z"/>
	<path class="st1" d="M34.7,32L23.2,20.2L17.9,27l-1.9-0.5l-0.1,0.1l0,0l0,0c-0.1-0.4-0.1-0.8-0.2-1.2c0,0,0,0,0,0
		c0-0.4-0.1-0.9-0.1-1.3c0,0,0,0,0,0c0-1.1,0.1-2.2,0.3-3.1c0.4-1.7,1-3.2,2-4.4c0,0,0,0,0,0c0,0,0.1-0.1,0.1-0.1
		c0.2-0.2,0.4-0.5,0.6-0.7c2-2.1,4.7-3.1,8.1-3.1c1.2,0,2.4,0.2,3.6,0.5c2.5,0.7,4.7,2.2,6.7,4.6l1.8-1.6L47,8.9
		c-2.4-2.9-5.3-5.1-8.9-6.6c-2.9-1.2-6-1.9-9.5-2.2C27.7,0,26.9,0,26,0c-0.5,0-1.1,0-1.6,0C21,0.2,18,0.8,15.1,1.9
		c-0.9,0.3-1.7,0.7-2.6,1.1c-2.1,1.1-4,2.4-5.6,4c-1.4,1.3-2.6,2.8-3.6,4.5C3,12,2.8,12.5,2.5,13c-0.1,0.2-0.2,0.3-0.2,0.5
		c-0.2,0.3-0.3,0.6-0.4,1c-0.1,0.2-0.2,0.5-0.3,0.8c-0.1,0.2-0.2,0.5-0.3,0.7c-0.1,0.2-0.1,0.5-0.2,0.7c-0.1,0.3-0.2,0.5-0.3,0.8
		c-0.1,0.3-0.1,0.6-0.2,0.9c0,0.2-0.1,0.4-0.1,0.6c-0.1,0.4-0.1,0.8-0.2,1.2c0,0.2-0.1,0.3-0.1,0.5c-0.1,0.5-0.1,1.1-0.2,1.7
		C0,22.8,0,23.4,0,24c0,0.7,0,1.4,0.1,2.1c0.3,3.8,1.4,7.2,3.2,10.3c0,0,0,0,0,0.1c0.3,0.5,0.6,0.9,0.9,1.4l0,0l5.2-6.1h2.9l3.6-4.1
		l0.2-0.2l2,0.5l4.7-5.9l2,8.8l1.6-2.6l2.3,1.4l2.3,4.6l0.2-1.8l1.9,0.7l0.8,1.1l1.4-1.2l1.2-2.2l7.9-6.8l-2.2,12l2.2,2.7h-4.7
		l-3.9-2.1l3.9,4.9l-7.3,1.4l-5.2-1.9l-4-2.6l-5.5,2.4l-3.3,0l1.8-2.6l-1.2-1.2L15,36.7l3-5l0,0l0.2-0.3l-0.3,0.2l0,0l-6.3,4.1
		l-3.2,4.1l-1.9,1c0,0,0,0,0,0c0.4,0.4,0.8,0.8,1.2,1.1c0,0,0.1,0.1,0.1,0.1c0.4,0.3,0.8,0.7,1.2,1c0.1,0.1,0.2,0.1,0.2,0.2
		c0.4,0.3,0.8,0.5,1.2,0.8c0.1,0.1,0.2,0.2,0.3,0.2c0.4,0.3,0.9,0.5,1.4,0.8c0.1,0,0.1,0.1,0.2,0.1c3.9,2,8.3,3,13.2,3
		c3.5,0,7-0.5,10.6-1.5c3.6-1,6.7-2.4,9.4-4.3V21.9l-9.8,8L34.7,32z"/>
	<path class="st2" d="M44.5,24l-7.9,6.8L35.4,33l-1.4,1.2l-0.8-1.1l-1.9-0.7l-0.2,1.8l-2.3-4.6l-2.3-1.4l-1.6,2.6l-2-8.8L18.2,28
		l-2-0.5l-0.2,0.2l-3.6,4.1H9.5l-5.2,6.1c0.7,1,1.5,1.9,2.4,2.8l1.9-1l3.2-4.1l6.3-4.1l0.3-0.2L18,31.7l-3,5l0.2,0.2l1.2,1.2
		l-1.8,2.6l3.3,0l5.5-2.4l4,2.6l5.2,1.9l7.3-1.4l-3.9-4.9l3.9,2.1h4.7L42.3,36L44.5,24z"/>
</g>
</svg>
