<?xml version="1.0" encoding="utf-8"?>
<!-- Generator: Adobe Illustrator 22.0.1, SVG Export Plug-In . SVG Version: 6.00 Build 0)  -->
<svg version="1.1" id="Шар_1" xmlns="http://www.w3.org/2000/svg" xmlns:xlink="http://www.w3.org/1999/xlink" x="0px" y="0px"
	 viewBox="0 0 16 16.4" style="enable-background:new 0 0 16 16.4;" xml:space="preserve">
<style type="text/css">
	.st0{fill:#1B2D59;}
	.st1{fill:#00505B;}
	.st2{fill:#FFCE71;}
</style>
<g>
	<path class="st0" d="M5.4,8.6c0,0.1,0,0.3,0.1,0.4C5.4,8.9,5.4,8.8,5.4,8.6z"/>
	<path class="st0" d="M0.2,7.6c0-0.2,0-0.4,0.1-0.6C0.2,7.2,0.2,7.4,0.2,7.6z"/>
	<polygon class="st0" points="1.6,12.8 1.6,12.8 1.6,12.8 	"/>
	<polygon class="st0" points="2.4,13.7 2.4,13.7 2.4,13.7 	"/>
	<path class="st0" d="M0.3,6.9c0-0.1,0-0.3,0.1-0.4C0.3,6.6,0.3,6.8,0.3,6.9z"/>
	<path class="st0" d="M6.2,5.6C6.2,5.6,6.2,5.6,6.2,5.6C6.2,5.6,6.2,5.6,6.2,5.6z"/>
	<path class="st0" d="M5.4,8.2c0,0.2,0,0.3,0,0.4C5.4,8.5,5.4,8.3,5.4,8.2z"/>
	<path class="st0" d="M6.1,5.7C5.8,6.1,5.6,6.6,5.5,7.1C5.6,6.6,5.8,6.1,6.1,5.7z"/>
	<path class="st0" d="M0.4,6.3c0-0.1,0-0.2,0.1-0.3C0.4,6.1,0.4,6.2,0.4,6.3z"/>
	<path class="st0" d="M0.5,5.7c0-0.1,0-0.2,0.1-0.2C0.6,5.6,0.6,5.6,0.5,5.7z"/>
	<path class="st0" d="M2.8,14.2C2.8,14.1,2.8,14.1,2.8,14.2C2.8,14.1,2.8,14.1,2.8,14.2z"/>
	<path class="st0" d="M0.3,6.5c0-0.1,0-0.1,0-0.2C0.4,6.4,0.3,6.4,0.3,6.5z"/>
	<path class="st0" d="M0.2,7.1c0-0.1,0-0.1,0-0.2C0.3,7,0.3,7,0.2,7.1z"/>
	<path class="st0" d="M3.2,14.5c-0.1-0.1-0.3-0.2-0.4-0.3C3,14.3,3.1,14.4,3.2,14.5z"/>
	<path class="st0" d="M0.5,6c0-0.1,0.1-0.2,0.1-0.3C0.5,5.8,0.5,5.9,0.5,6z"/>
	<path class="st0" d="M2.8,14.1c-0.1-0.1-0.3-0.3-0.4-0.4C2.5,13.9,2.7,14,2.8,14.1z"/>
	<path class="st0" d="M1.6,12.8c-0.1-0.1-0.2-0.3-0.3-0.5C1.4,12.5,1.5,12.7,1.6,12.8z"/>
	<polygon class="st0" points="5.5,9.1 5.5,9.1 5.5,9.1 	"/>
	<path class="st0" d="M6.1,5.6C6.1,5.7,6.1,5.7,6.1,5.6C6.1,5.7,6.1,5.7,6.1,5.6z"/>
	<path class="st0" d="M0.6,5.5c0-0.1,0.1-0.2,0.1-0.2C0.7,5.3,0.6,5.4,0.6,5.5z"/>
	<path class="st0" d="M5.4,8.6C5.4,8.6,5.4,8.6,5.4,8.6C5.4,8.6,5.4,8.6,5.4,8.6z"/>
	<path class="st0" d="M5.4,8.2C5.4,8.2,5.4,8.2,5.4,8.2c0-0.4,0-0.7,0.1-1C5.4,7.5,5.4,7.8,5.4,8.2C5.4,8.2,5.4,8.2,5.4,8.2z"/>
	<path class="st1" d="M11.7,10.9L7.9,6.9L6.1,9.2L5.5,9l0,0l0,0l0,0c0-0.1,0-0.3-0.1-0.4c0,0,0,0,0,0c0-0.1,0-0.3,0-0.4c0,0,0,0,0,0
		c0-0.4,0-0.7,0.1-1c0.1-0.6,0.3-1.1,0.7-1.5c0,0,0,0,0,0c0,0,0,0,0,0c0.1-0.1,0.1-0.2,0.2-0.2c0.7-0.7,1.6-1,2.7-1
		c0.4,0,0.8,0.1,1.2,0.2c0.8,0.2,1.6,0.7,2.2,1.5l0.6-0.5l2.7-2.4c-0.8-1-1.8-1.7-3-2.2c-1-0.4-2-0.6-3.2-0.7c-0.3,0-0.6,0-0.9,0
		c-0.2,0-0.4,0-0.5,0C7.2,0.2,6.2,0.5,5.2,0.8C4.9,0.9,4.6,1.1,4.4,1.2C3.6,1.6,3,2,2.5,2.5C2,3,1.6,3.5,1.3,4
		C1.2,4.2,1.1,4.3,1,4.5C1,4.6,1,4.6,0.9,4.7C0.9,4.8,0.8,4.9,0.8,5c0,0.1-0.1,0.2-0.1,0.3c0,0.1-0.1,0.2-0.1,0.2
		c0,0.1,0,0.2-0.1,0.2c0,0.1-0.1,0.2-0.1,0.3c0,0.1,0,0.2-0.1,0.3c0,0.1,0,0.1,0,0.2c0,0.1,0,0.3-0.1,0.4c0,0.1,0,0.1,0,0.2
		c0,0.2,0,0.4-0.1,0.6c0,0.2,0,0.4,0,0.6c0,0.2,0,0.5,0,0.7c0.1,1.3,0.5,2.4,1.1,3.4c0,0,0,0,0,0c0.1,0.2,0.2,0.3,0.3,0.5l0,0l1.7-2
		h1l1.2-1.4l0.1-0.1l0.7,0.2l1.6-2l0.7,2.9L9,9.6l0.8,0.5l0.8,1.5l0.1-0.6l0.6,0.2l0.3,0.4l0.5-0.4l0.4-0.7L15,8.2l-0.7,4l0.7,0.9
		h-1.6l-1.3-0.7l1.3,1.6L11,14.4l-1.7-0.6L8,12.9l-1.8,0.8l-1.1,0l0.6-0.9l-0.4-0.4l-0.1-0.1l1-1.7l0,0l0.1-0.1l-0.1,0.1l0,0
		l-2.1,1.4L3,13.4l-0.6,0.3c0,0,0,0,0,0c0.1,0.1,0.3,0.3,0.4,0.4c0,0,0,0,0,0c0.1,0.1,0.3,0.2,0.4,0.3c0,0,0.1,0,0.1,0.1
		c0.1,0.1,0.3,0.2,0.4,0.3c0,0,0.1,0.1,0.1,0.1C4,15,4.1,15,4.3,15.1c0,0,0,0,0.1,0c1.3,0.7,2.8,1,4.4,1c1.2,0,2.3-0.2,3.5-0.5
		c1.2-0.3,2.2-0.8,3.1-1.4V7.5l-3.3,2.7L11.7,10.9z"/>
	<path class="st2" d="M15,8.2l-2.6,2.3L12,11.2l-0.5,0.4l-0.3-0.4L10.6,11l-0.1,0.6l-0.8-1.5L9,9.6l-0.5,0.9L7.8,7.5l-1.6,2L5.6,9.4
		L5.5,9.4l-1.2,1.4h-1l-1.7,2c0.2,0.3,0.5,0.6,0.8,0.9L3,13.4l1.1-1.4l2.1-1.4l0.1-0.1l-0.1,0.1l-1,1.7l0.1,0.1l0.4,0.4L5,13.7
		l1.1,0L8,12.9l1.3,0.9l1.7,0.6l2.4-0.5l-1.3-1.6l1.3,0.7H15l-0.7-0.9L15,8.2z"/>
</g>
</svg>
