<svg width="41" height="41" viewBox="0 0 41 41" fill="none" xmlns="http://www.w3.org/2000/svg">
<path d="M20.0281 3.88452C16.7324 3.88452 13.5107 4.86181 10.7704 6.6928C8.03017 8.5238 5.89439 11.1263 4.63318 14.1711C3.37197 17.2159 3.04198 20.5664 3.68494 23.7987C4.32789 27.0311 5.91493 30.0002 8.24534 32.3306C10.5757 34.6611 13.5449 36.2481 16.7772 36.891C20.0096 37.534 23.3601 37.204 26.4049 35.9428C29.4497 34.6816 32.0522 32.5458 33.8832 29.8055C35.7142 27.0653 36.6915 23.8436 36.6915 20.5479C36.6915 18.3596 36.2605 16.1928 35.423 14.1711C34.5856 12.1494 33.3582 10.3124 31.8109 8.7651C30.2635 7.21777 28.4266 5.99036 26.4049 5.15294C24.3832 4.31553 22.2164 3.88452 20.0281 3.88452ZM20.0281 33.8786C17.3915 33.8786 14.8142 33.0967 12.622 31.6319C10.4298 30.1671 8.72113 28.0852 7.71216 25.6493C6.70319 23.2134 6.4392 20.5331 6.95357 17.9472C7.46794 15.3613 8.73756 12.986 10.6019 11.1217C12.4662 9.25733 14.8415 7.98771 17.4274 7.47334C20.0133 6.95897 22.6937 7.22296 25.1295 8.23193C27.5654 9.2409 29.6474 10.9495 31.1122 13.1417C32.577 15.334 33.3588 17.9113 33.3588 20.5479C33.3588 24.0834 31.9543 27.4741 29.4543 29.9741C26.9543 32.4741 23.5636 33.8786 20.0281 33.8786Z" fill="black"/>
<path d="M24.544 16.032C24.3891 15.8758 24.2048 15.7518 24.0017 15.6672C23.7986 15.5826 23.5808 15.5391 23.3609 15.5391C23.1409 15.5391 22.9231 15.5826 22.72 15.6672C22.517 15.7518 22.3327 15.8758 22.1778 16.032L20.0282 18.1982L17.8786 16.032C17.5648 15.7182 17.1393 15.5419 16.6955 15.5419C16.2518 15.5419 15.8262 15.7182 15.5124 16.032C15.1987 16.3457 15.0224 16.7713 15.0224 17.2151C15.0224 17.6588 15.1987 18.0844 15.5124 18.3982L17.6787 20.5477L15.5124 22.6973C15.3562 22.8522 15.2323 23.0365 15.1477 23.2396C15.0631 23.4426 15.0195 23.6604 15.0195 23.8804C15.0195 24.1004 15.0631 24.3182 15.1477 24.5212C15.2323 24.7243 15.3562 24.9086 15.5124 25.0635C15.6673 25.2197 15.8516 25.3436 16.0547 25.4282C16.2578 25.5128 16.4756 25.5564 16.6955 25.5564C16.9155 25.5564 17.1333 25.5128 17.3364 25.4282C17.5394 25.3436 17.7237 25.2197 17.8786 25.0635L20.0282 22.8973L22.1778 25.0635C22.3327 25.2197 22.517 25.3436 22.72 25.4282C22.9231 25.5128 23.1409 25.5564 23.3609 25.5564C23.5808 25.5564 23.7986 25.5128 24.0017 25.4282C24.2048 25.3436 24.3891 25.2197 24.544 25.0635C24.7002 24.9086 24.8241 24.7243 24.9087 24.5212C24.9933 24.3182 25.0369 24.1004 25.0369 23.8804C25.0369 23.6604 24.9933 23.4426 24.9087 23.2396C24.8241 23.0365 24.7002 22.8522 24.544 22.6973L22.3777 20.5477L24.544 18.3982C24.7002 18.2433 24.8241 18.059 24.9087 17.8559C24.9933 17.6528 25.0369 17.435 25.0369 17.2151C25.0369 16.9951 24.9933 16.7773 24.9087 16.5742C24.8241 16.3712 24.7002 16.1869 24.544 16.032Z" fill="black"/>
</svg>
