<svg width="30" height="30" viewBox="0 0 30 30" fill="none" xmlns="http://www.w3.org/2000/svg">
<g clip-path="url(#clip0)">
<path d="M16.6571 15.001L29.6565 2.00156C30.1142 1.54388 30.1142 0.80185 29.6565 0.344233C29.1989 -0.113384 28.4568 -0.113442 27.9992 0.344233L14.9997 13.3437L2.00033 0.344233C1.54266 -0.113442 0.800628 -0.113442 0.343012 0.344233C-0.114604 0.801908 -0.114663 1.54394 0.343012 2.00156L13.3424 15.001L0.343012 28.0005C-0.114663 28.4581 -0.114663 29.2002 0.343012 29.6578C0.57182 29.8866 0.871761 30.001 1.1717 30.001C1.47164 30.001 1.77153 29.8866 2.00039 29.6578L14.9997 16.6584L27.9991 29.6578C28.228 29.8866 28.5279 30.001 28.8278 30.001C29.1278 30.001 29.4277 29.8866 29.6565 29.6578C30.1142 29.2001 30.1142 28.4581 29.6565 28.0005L16.6571 15.001Z" fill="#272727"/>
</g>
<defs>
<clipPath id="clip0">
<rect width="30" height="30" fill="#272727"/>
</clipPath>
</defs>
</svg>
