<svg width="20" height="20" viewBox="0 0 20 20" fill="none" xmlns="http://www.w3.org/2000/svg">
<path d="M4.16664 8.33333C4.16626 8.13862 4.23407 7.94993 4.3583 7.8C4.42826 7.71562 4.51418 7.64587 4.61113 7.59474C4.70809 7.54361 4.81418 7.51212 4.92333 7.50205C5.03247 7.49199 5.14253 7.50356 5.2472 7.5361C5.35187 7.56863 5.4491 7.6215 5.5333 7.69167L9.99997 11.425L14.475 7.825C14.5602 7.75578 14.6583 7.70409 14.7636 7.67289C14.8689 7.6417 14.9793 7.63162 15.0885 7.64324C15.1976 7.65485 15.3035 7.68794 15.3998 7.74058C15.4962 7.79323 15.5812 7.8644 15.65 7.95C15.7258 8.03622 15.7831 8.13719 15.818 8.24658C15.853 8.35597 15.865 8.4714 15.8533 8.58565C15.8416 8.69989 15.8063 8.81048 15.7498 8.91046C15.6933 9.01045 15.6168 9.09767 15.525 9.16667L10.525 13.1917C10.3759 13.3142 10.1888 13.3812 9.9958 13.3812C9.80278 13.3812 9.61575 13.3142 9.46663 13.1917L4.46664 9.025C4.36579 8.9414 4.28607 8.83521 4.23394 8.71503C4.18182 8.59486 4.15876 8.46409 4.16664 8.33333Z" fill="#1A1A1A"/>
</svg>
