<svg width="27" height="27" viewBox="0 0 27 27" fill="none" xmlns="http://www.w3.org/2000/svg">
<path d="M13.4994 0C8.33299 0 4.12991 4.20369 4.12991 9.3702C4.12991 14.3434 12.631 25.9626 12.9929 26.4546L13.3308 26.9144C13.3703 26.9684 13.4332 27 13.4994 27C13.5666 27 13.6291 26.9684 13.669 26.9144L14.0066 26.4546C14.3688 25.9626 22.8696 14.3434 22.8696 9.3702C22.8696 4.20369 18.6659 0 13.4994 0ZM13.4994 6.01381C15.3505 6.01381 16.8558 7.51914 16.8558 9.3702C16.8558 11.2203 15.3504 12.7266 13.4994 12.7266C11.6493 12.7266 10.143 11.2203 10.143 9.3702C10.143 7.51914 11.6493 6.01381 13.4994 6.01381Z" fill="#E1AD66"/>
</svg>
